<?xml version="1.0" encoding="UTF-8"?>
<svg version="1.1" viewBox="0 0 2048 1631" width="560" height="446" xmlns="http://www.w3.org/2000/svg">
<path transform="translate(1010,258)" d="m0 0h17l17 4 19 9 12 8 12 9 11 10 8 7 13 14 13 17 13 18 4 5 41 15 26 13 25 15 16 12 14 12 13 13 11 14 10 14 12 21 8 19 7 23 5 25 2 21 2 46 3 15 6 15 7 12 12 17 10 14 4 8v7l-5 9-13 13-14 9-2 1-1 6-1 92-3 15-6 12-9 10-10 6-10 4-11 2-73 2-28 2-33 5-25 6-19 7-14 6-1 1-1 9-6 10-8 6-5 1h-9l-7-3-5-4-5-9v-14l5-8 6-5 5-2h14l6 3 5-1 20-8 27-8 29-6 36-4 21-1 66-2 13-4 8-6 6-8 3-10 1-6 1-104 2-3 16-8 11-9 5-6-2-6-10-14-14-21-8-16-4-10-3-15-2-47-2-21-5-26-7-21-7-16-10-18-12-17-10-11-7-8-10-9-11-9-21-14-18-10-25-12-22-8-28-7-21-4-17-2-17-1h-29l-23 2-28 5 3 11 10 24 4 8v2h10l9 5 5 7 23-1 28 1 27 3 11 2h5l9-10 9-5 4-1h16l10 4 8 7 5 7 3 8v16l-6 12-5 5-5 4-9 4-5 1h-9l-11-4-8-6-6-7-4-11-1-7-28-4-10-1h-47l-4 5v6l11 18 13 18 14 19 7 9 11 14 12 14 11 13 11 12v2l12-3h13l11 4 9 8 7 14 1 5v7l-3 10-7 10-9 6-10 4-9 1-14 24-10 13-18 20-15 14-10 8-8 5-1 2 5 2 17 12 14 12 9 9 3 4h19l11 4 10 9 5 9 2 7v10l-3 9-5 8-7 6-10 5-4 1h-12l-11-4-10-9-2-3-5 1-24 9-26 12-26 14-21 13-23 16-14 11 3 9v13l-4 11-6 8-8 6-11 4h-10l-10-3-6-4-8-8-4-8-1-4v-14l4-11 9-10 10-5 3-1h15l9 3 5 1 12-10 12-8 14-10 25-15 28-15 22-10 27-10 3-1 3-14 5-9 1-4-12-12-8-7-12-9-16-9h-6l-16 8-29 11-14 4-9 24-10 19-7 11-10 13-10 10-12 9-14 7-16 4h-16l-11-3-8-4-9-7-8-9-7-14-4-13-2-15v-10l3-21 5-20 1-6-11-9-8-7-16-16-33 3h-16l-19-2-18-4-13-5-11-6-10-9-7-8-7-14-2-8v-19l3-12 8-16 7-11 9-11 14-14 17-13 14-10 23-13 10-5 5-2 11-25 10-19 7-11v-3l-14-9-11-9-7-6-7-8-6-9-6-12-3-12v-13l4-13 7-11 7-7 15-9 16-5 11-2h25l24 4 21 7 25 12 15 9 7-1 28-10 12-4-1-9-3-21v-18l3-16 5-12 6-9 8-8 14-7zm2 16-10 3-6 4-7 7-5 11-3 14v16l3 21 2 6 9-1 24-4 21-2h41l28 3 15 2-2-5-9-12-13-15-16-16-14-11-13-9-12-6-16-5-6-1zm-199 85-14 3-16 8-10 10-4 9-1 5v7l3 10 6 11 11 12 7 7 13 9 8 5 4-2 8-8 7-8 8-8 11-9 10-8 19-13 15-9 7-5-3-3-26-13-21-7-10-2-10-1zm158 17-27 9-16 7-22 11-17 10-14 10-11 9-10 9-8 7-9 9-4 5v2l14 7 28 10 38 11 34 7 5-1 7-11 10-6 7-2h13l11 4 8 7 7 14 1 11-3 12-7 10-12 7-8 2-13-1-6-3h-5l-7 6-17 11-17 10-24 11-10 4-2 2-3 10-4 5-9 5-8 1-8-2-6-4-4-5-3-8v-7l4-9 5-5 8-4 8-1 10 4 5 4 6-2 18-8 20-10 16-10 11-8 1-4-4-12-2-2-34-7-26-7-25-8-28-11-9-4-4 2-9 15-11 21-7 19-6 23-2 12-1 13v22l2 19 6 25 7 19 9 16 3 3 8-1 23-6 27-9 26-11 29-14 19-10 10-5v-15l3-10 5-8 7-6 9-4 6-1h8l11 3 9 7 6 10 2 5 1 11-2 9-6 10-7 6-9 5-3 52-4 27-1 12 10-2 16-6 15-7 18-10 17-12 14-12 19-19 13-17 10-17 2-5-8-9-5-10-1-4v-12l4-11-1-5-8-8-7-8-9-11-11-13-11-14-12-15-13-19-8-11-15-23-13-2-8-6-5-10v-10l4-8-1-7-9-19-9-24zm-199 171-15 8-18 12-14 10-16 15-9 11-7 10-7 15-2 9v13l4 11 6 9 9 8 16 8 15 4 15 2h23l19-2 2-2-11-23-7-21-4-19-2-15v-31l3-23 1-9zm187 97-22 12-15 8-30 13-23 9-31 10-15 4 2 4 8 8 9 7 13 8 22 11 19 6 12 3 15 2h40l6-1 4-16 4-26 2-21 1-17v-14l-14-8-2-2zm-105 101-3 8-3 14-1 8v27l4 16 7 11 7 7 12 6 3 1h14l14-4 11-6 11-9 8-8 10-14 8-15 9-23h-38l-24-3-19-5-26-10z" fill="#8324C9"/>
<path transform="translate(816,1023)" d="m0 0h13l15 4 6 4 4 5 2 8v197l-1 9-6 7-9 3h-9l-9-3-5-6-2-8v-142l-2 1-17 54-16 54-12 39-6 8-9 3-10-1-6-4-5-6-12-36-6-20-12-38-15-49-3-6-1 146-3 6-5 5-4 2h-16l-6-3-5-5-2-8v-171l1-33 4-7 8-5 11-3h17l9 2 8 5 7 8 6 16 36 123v2l3-3 14-52 17-59 5-18 7-14 9-7z" fill="#9030BF"/>
<path transform="translate(1077,694)" d="m0 0 1 4-2 5-3-1v5l3 1 4-1v-2h2v-2h2l1-4 2 1v7l-13 12-11 7-1 2 5 2 17 12 14 12 9 9 3 4h19l11 4 10 9 5 9 2 7v10l-3 9-5 8-7 6-10 5-4 1h-12l-11-4-10-9-2-3-5 1-24 9-26 12-26 14-21 13-23 16-14 11 3 9v13l-4 11-6 8-8 6-11 4h-10l-10-3-6-4-8-8-4-8-1-4v-14l4-11 9-10 10-5 3-1h15l9 3 5 1 12-10 12-8 14-10 25-15 28-15 22-10 27-10 3-1 3-14 5-9 1-4-12-12-8-7-12-9-16-9h-6l-16 8-29 11-14 4-9 24-10 19-7 11-10 13-10 10-12 9-14 7-16 4h-16l-11-3-8-4-9-7-8-9-7-14-4-13-2-15v-10l3-21 5-20 1-6-5-5-4-5-2-1v-2l-2-1 1-5 4 2v2h2l1-2 2 1-1-4h2l1-2 10 7 23 12 11 5 26 7 15 2h46l5-27 2-15h2v3h2v2l4 2 1 3 3 1v2h2l1 6-3 18 24-8 16-7 19-11 17-12zm-223 51-3 8-3 14-1 8v27l4 16 7 11 7 7 12 6 3 1h14l14-4 11-6 11-9 8-8 10-14 8-15 9-23h-38l-24-3-19-5-26-10z" fill="#C34F87"/>
<path transform="translate(1267,1023)" d="m0 0h21l11 3 8 7 6 12 18 55 14 43 19 57 11 34 1 4v8l-4 6-6 5-7 3h-12l-5-3-5-6-16-47-12-36-24-73-8-24-2 3-20 61-14 43-12 35-10 32-4 8-4 5-5 2h-13l-10-5-5-6-1-3v-7l6-20 36-108 16-49 10-28 5-6 11-4z" fill="#9130BE"/>
<path transform="translate(1691,1023)" d="m0 0h21l9 2 8 5 4 5 5 11 13 38 13 41 24 73 11 34 1 4v11l-4 6-5 4-7 3h-12l-7-4-7-14-9-29-24-72-15-46-8-24-2 3-26 79-12 36-18 55-6 11-4 4-3 1h-13l-10-5-5-6-1-2v-9l14-43 30-91 18-55 5-14 6-7 10-4z" fill="#8123CA"/>
<path transform="translate(447,1023)" d="m0 0h17l10 2 6 3 7 8 6 14 16 49 15 47 13 38 15 47 2 7v9l-6 8-10 5h-13l-6-4-4-7-5-12-8-26-46-138-2-2-8 25-17 53-33 99-6 9-5 3h-13l-9-4-6-7-1-2v-11l14-43 9-27 12-37 12-36 17-50 4-10 6-6 10-3z" fill="#8123CA"/>
<path transform="translate(806,486)" d="m0 0h6l2 4-13 25-7 19-6 23-2 12-1 13v22l2 19 6 25 7 19 9 16 2 2 8-1 23-6 27-9 26-11 29-14 19-10 9-4v-15l3-10 5-8 8-7 9-4 6-1h8l11 3 9 7 6 9 3 7 1 11-2 9-6 10-8 7-8 4-3 52-2 15-2 2v-2h-2l-6-7-2-1v-2h-2l-1-3v-10l2-28v-14l-12-6-3-3h-5l-22 12-15 8-30 13-23 9-31 10-11 3h-4l7 8 7 6-1 7-5 1v-2l-4-1-1 4 3 1-1 2 3 1 4 5-5-2-12-11-14-14-33 3h-16l-19-2-18-4-13-5-11-6-10-9-7-8-7-14-2-8v-19l3-12 8-16 7-11 9-11 14-14 17-13 14-10 23-13 10-5 5-2 11-25 6-11h5v-2l5-1zm-34 61-15 8-18 12-14 10-16 15-9 11-7 10-7 15-2 9v13l4 11 6 9 9 8 16 8 15 4 15 2h23l19-2 2-2-11-23-7-21-4-19-2-15v-31l3-23 1-9z" fill="#AA3FA0"/>
<path transform="translate(132,1023)" d="m0 0h13l8 3 5 6 1 4 1 84 4-2 24-28 13-15 24-28 11-13 6-7 7-4h8l8 4 5 4 4 6 2 9-4 8-13 16-9 10-11 14-10 11-9 11-12 14-13 16-10 11-7 8-11 12-6 8-1 3-1 59-3 6-6 5-8 2-12-1-7-4-3-4-2-16v-200l3-6 5-4z" fill="#AA3FA0"/>
<path transform="translate(990,390)" d="m0 0 3 1 4 1 1-2 8 19 3 6v2h10l9 5 5 7 23-1 28 1 27 3 11 2h5l9-10 9-5 4-1h16l10 4 8 7 5 7 3 8v16l-6 12-5 5-5 4-9 4-5 1h-9l-11-4-8-6-6-7-4-11-1-7-28-4-10-1h-47l-4 5v6l11 18 13 18 14 19 7 9 11 14 12 14 11 13 11 12v2l12-3h13l11 4 9 8 7 14 1 5v7l-3 10-7 10-9 6-10 4-9 1-14 24-10 13-18 20-8 7-2-2-1-5-1 4h-2v2h-2v2h-3l-1 3-3-3v-5h2l4-10 17-17 13-17 10-17 2-5-8-9-5-10-1-4v-12l4-11-1-5-8-8-7-8-9-11-11-13-11-14-12-15-13-19-8-11-14-22-13-2-8-6-5-8-1-3v-10l4-8-1-7-9-19-3-9h2v2l5-1v2l3-1z" fill="#9130BE"/>
<path transform="translate(975,1023)" d="m0 0h12l8 3 5 5 1 3 1 19v169h87l12 2 5 6 2 7v8l-3 7-6 6h-121l-9-3-6-7-2-5v-208l4-7 7-4z" fill="#AA3FA0"/>
<path transform="translate(666,1024)" d="m0 0h17l9 2 8 5 7 8 6 16 12 41 6 21-1 4-4-3-13 1h-13l-6-1-2 2-3-8-4-11-1-1-1 146-3 6-5 5-4 2h-16l-6-3-5-5-2-8v-171l1-33 4-7 8-5z" fill="#8123CA"/>
<path transform="translate(1305,477)" d="m0 0 5 1 3 6h2l10 23 7 23 5 25 2 21 2 46 3 15 6 15 7 12 12 17 10 14 4 8v7l-5 9-13 13-14 9-2 1-1 6-1 92-3 15-6 12-9 10-10 6-10 4-11 2-73 2-28 2-33 5-25 6-19 7-14 6-1 1-1 9-6 10-8 6-5 1h-9l-7-3-5-4-5-9v-14l5-8 6-5 5-2h14l6 3 5-1 20-8 27-8 29-6 36-4 21-1 66-2 13-4 8-6 6-8 3-10 1-6 1-104 2-3 16-8 11-9 5-6-2-6-10-14-14-21-8-16-4-10-3-15-2-47-2-21-5-26-7-21-5-13v-7l1-4v-8z" fill="#AA3FA0"/>
<path transform="translate(1906,1023)" d="m0 0h12l8 3 6 7 1 4v201l-1 10-4 6-5 4-12 2-10-2-7-6-2-5v-213l3-5 5-4z" fill="#AA3FA0"/>
<path transform="translate(774,1107)" d="m0 0h7l9 10 4 6 4 2 1-2 4 1 1 7-10 32-18 60-8 26-6 8-9 3-10-1-6-4-5-6-12-36-6-20-12-38-10-33 2-5 13 1h12l7-1 5 3 2 4 10 34 6 20v2l3-3 14-52 2-7 3-2v-2h2z" fill="#AA3FA0"/>
<path transform="translate(846,470)" d="m0 0 29 10 38 11 34 7h4l7-11 9-6 9-3h13l11 4 9 8 7 14 1 11-3 12-7 10-11 7-10 3-13-1-6-3h-5l-7 6-17 11-17 10-24 11-10 4-3 9-6 8-9 5-8 1-8-2-6-4-5-6-3-8v-7l4-9 4-5 10-5 8-1 10 4 5 4 6-2 18-8 20-10 16-10 11-8-2-9-3-7-34-7-26-7-25-8-8-3 1-4h3l-1-5-3-1v-2l-5-1-3-2z" fill="#AA3FA0"/>
<path transform="translate(1042,475)" d="m0 0 3 1 12 17 14 19 7 9 11 14 12 14 11 13 11 12v2l12-3h13l11 4 9 8 7 14 1 5v7l-3 10-7 10-9 6-10 4-9 1-14 24-10 13-18 20-8 7-2-2-1-5-1 4h-2v2h-2v2h-3l-1 3-3-3v-5h2l4-10 17-17 13-17 10-17 2-5-8-9-5-10-1-4v-12l4-11-1-5-8-8-7-8-9-11-11-13-11-14-12-15-12-17 3-1-1-9-2-10z" fill="#AA3FA0"/>
<path transform="translate(1653,1110)" d="m0 0 5 1 4 4v3l5 2 4 3h6l3 2 1 7-15 46-12 36-11 32-6 10-3 3-3 1h-13l-10-5-5-6-1-2v-9l14-43 27-82h2l2-2h5z" fill="#AA3FA0"/>
<path transform="translate(1227,1112)" d="m0 0 9 1 4 4v2h5l7 3 2 1 2 9-16 49-23 69-6 8-5 2h-13l-10-5-5-6-1-3v-7l6-20 34-102z" fill="#AA3FA0"/>
<path transform="translate(406,1110)" d="m0 0 5 1 2 1v2l4 2 6 5v3l7 1 1-2 3 7-2 9-14 43-22 66-6 9-5 3h-13l-9-4-6-7-1-2v-11l14-43 9-27 12-37 5-12 3-3 4-2z" fill="#AA3FA0"/>
<path transform="translate(1300,1115)" d="m0 0h10l7 3 5 2 12 2v2l3 1 3 3 24 72 11 34 1 4v8l-4 6-6 5-7 3h-12l-5-3-5-6-16-47-12-36-16-49 1-3z" fill="#AA3FA0"/>
<path transform="translate(1756,1116)" d="m0 0 1 2 3 1 1 5 3 1 24 73 11 34 1 4v11l-4 6-5 4-7 3h-12l-7-4-7-14-9-29-24-72-5-16v-4l2-1 1-3h15l3 1h9z" fill="#AA3FA0"/>
<path transform="translate(480,1115)" d="m0 0 7 1 12 4 10-1v4h2l3 5 6 5 13 40 12 36 9 29v9l-6 8-10 5h-13l-6-4-4-7-5-12-8-26-24-72-1-5v-3l-2-7v-5l4-1z" fill="#AA3FA0"/>
<path transform="translate(645,1105)" d="m0 0 2 1v2l4 1h3l5 5 20 10v2h3l1 5v115l-3 6-5 5-4 2h-16l-6-3-5-5-2-8v-131z" fill="#AA3FA0"/>
<path transform="translate(815,1102)" d="m0 0h1l1 24 4-8 9-3 16 1 6 7 4 2v116l-1 9-6 7-9 3h-9l-9-3-5-6-2-8z" fill="#AA3FA0"/>
<path transform="translate(1327,852)" d="m0 0h2l1 7-4 5h-2l-2 5 5 3h1v-3l4-2h3l5-8 1 3-7 10-9 8-13 6-14 3-73 2-28 2-33 5-25 6-19 7-14 6-1 1-1 9-6 10-8 6-5 1h-9l-7-3-5-4-5-9v-14l5-8 6-5 5-2h14l6 3 5-1 20-8 27-8 29-6 36-4 21-1 66-2 13-4 8-6 6-8z" fill="#DE5E6F"/>
<path transform="translate(1025,829)" d="m0 0 3 3h-2l-1 2-5 5-7 1v4l-4 1-2 2h-3v2l2 1h2l10-2 1-2 2 1 1-5 2 2 3-1v4l-20 11-19 12-20 14-14 11 3 9v13l-4 11-6 8-8 6-11 4h-10l-10-3-6-4-8-8-4-8-1-4v-14l4-11 9-10 10-5 3-1h15l9 3 5 1 12-10 12-8 14-10 25-15z" fill="#DF5E6F"/>
<path transform="translate(214,1136)" d="m0 0h7l5 3 6 7 26 38 15 22 12 18 3 7v8l-3 8-10 6-5 2h-7l-6-4-8-10-11-16-9-13-8-12-16-23-7-10-2-5v-10l1-7 9-6z" fill="#AA3FA0"/>
<path transform="translate(249,1023)" d="m0 0h8l8 4 5 4 4 6 2 9-4 8-13 16-9 10-11 14-10 11-9 11-12 14-13 16-3 1v-6l4-11-1-5-2-3-3-1v-3l-4-2-10-2-1-3-2-1 1-4 9-10 9-11 10-11 9-11 9-10 9-11 13-15z" fill="#8223C9"/>
<path transform="translate(757,375)" d="m0 0h5l1 5-1 2 2 6-3 8 4-6 4-1v12l3 10 6 11 11 12 10 9 17 11 4-2 7-7 7-8 9-9 11-9 10-8 19-13 15-9 3-1v5l-6 6-1 2h-2l1 3 2-1v3l2-2 4-3 7-1 9-4 1 2-19 10-16 10-13 10-13 11-13 12-10 11-1 2 5 2 8 4v5l7 3v2l4 1v5h-3l-1 3-5-1-24-10-3 1-6 10-6-2-4 1-3 1-2-1v2h-5l6-11 5-8v-3l-14-9-11-9-7-6-7-8-6-9-6-12-3-12v-13l4-13z" fill="#9231BD"/>
<path transform="translate(1906,1023)" d="m0 0h12l8 3 6 7 1 4v107h-1l-1-11-6-7-5-2v-2h-5l-7-6h-2l-5-5-6-12v-3h-2l-1 2v-64l3-5 5-4z" fill="#9030BF"/>
<path transform="translate(1275,316)" d="m0 0h8l10 3 9 6 7 9 4 10v15l-7 14-8 7-8 4-11 2-12-2-10-6-7-7-5-11-1-12 2-9 6-10 9-8 9-4z" fill="#8223C9"/>
<path transform="translate(727,452)" d="m0 0h16l10 4 10 9 5 10 1 4v15l-4 10-6 8-10 6-6 2h-16l-10-4-8-7-6-9-2-6v-15l4-10 6-8 8-6z" fill="#AA3FA0"/>
<path transform="translate(763,732)" d="m0 0h13l11 4 10 9 6 12 1 4v12l-4 10-6 8-9 6-7 3-12 1-9-2-11-7-6-7-5-13v-10l4-12 6-8 6-5 8-4z" fill="#C45087"/>
<path transform="translate(132,1023)" d="m0 0h13l8 3 5 6 1 4v86l-12 2-6-2-9-5-4-1v-2l-3-1-3-7-3-5v-69l5-6z" fill="#8123CA"/>
<path transform="translate(975,1023)" d="m0 0h12l8 3 5 5 1 3v95l-3-3-2-4-2 1v-2h-2v-2l-4-1-9-4-6-2-2 1-3-1-1-3-2-1-3 10h-1v-83l4-7 7-4z" fill="#9030BF"/>
<path transform="translate(1267,1023)" d="m0 0h21l11 3 8 7 3 5 1 8 2 5 2 6v8l2 2v3h-3l-2 6-6 3-9 1v-2l-5 2-7-5-3-3v-4l-3-1v-2h-4v3l-3 2-1 9-2 1-3 3-8-4-6-4-2-4-2-2-1-4-6-4-1-4v-10l6-15 6-5 9-3z" fill="#8123CA"/>
<path transform="translate(816,1023)" d="m0 0h13l15 4 6 4 4 5 1 2v44l-4-2h-14l-7 1-3 2-9-1-6 1-6-3-5-6v-2h-2v-2l-6-2-3-4v-3h-2l-1-10 6-14 5-6 8-5z" fill="#8123CA"/>
<path transform="translate(644,1036)" d="m0 0h1l1 17 4 14v6l4 1v2l4 2 7 1 2 2 15 6 9-1 8-4 3-1 8-8 2-3 2 1-3-11-4-16 2-1 11 36 11 38-1 4-4-3-13 1h-13l-6-1-2 2-3-8-4-11-1-1-1 31h-1v-5h-3l-3-3-11-5-6-3-2-4-5-2-2 2-5-5-2 6h-1v-40l1-33z" fill="#9030BF"/>
<path transform="translate(1368,702)" d="m0 0h2l2 9h-2l-1 6 5-1 2 1 1-4 3-1-1 5-7 8-7 7-14 9-2 1-1 6-1 92-3 15-2 5-9 9h-3-2l1 5-2 1-2-3-4-2 1-3 2-4 2 1 1-4 1 1 1-5-1-7 2-11 1-104 2-3 16-8 11-9 5-6-1-5 4 1z" fill="#C34F87"/>
<path transform="translate(206,1069)" d="m0 0 2 1-4 5 7-3 4 1 9 1 2 2 2 6h3l1 4 7 2 2 3-9 11-9 10-8 10-13 15-7 9-3 1v-6l4-11-1-5-2-3-3-1v-3l-4-2-10-2-1-3-2-1 1-4 9-10 9-11 10-11z" fill="#9030BE"/>
<path transform="translate(1664,1049)" d="m0 0 2 1v2h3l1 7 1 4 3 3 2 7 2 3v3l10 1 6-4 5-1-3 11-14 43-2 1v-5l-9-1-9-6v-3l-4-2v-2h-5l-5 1-4 2 1-7z" fill="#9130BE"/>
<path transform="translate(416,1055)" d="m0 0 4 3-1 2 3 1v2l4 1v2h4l3 9 4 2v2l5-2 5 1 1 3 3-3-3 12-13 40-3-1-2-4-7-1-3-5-7-5v-2l-7-1-5 4-5 2 3-11 12-37z" fill="#9130BE"/>
<path transform="translate(1698,1160)" d="m0 0 10 1 10 5 6 8 2 6v12l-5 10-8 7-10 3-10-1-8-4-7-9-3-9 1-10 4-8 5-5 6-4z" fill="#AA3FA0"/>
<path transform="translate(1274,1160)" d="m0 0 9 1 10 5 6 8 2 4 1 10-3 9-6 9-10 5-7 1-11-2-10-9-4-9-1-7 2-9 6-9 8-5z" fill="#AA3FA0"/>
<path transform="translate(486,1036)" d="m0 0 3 4 6 16 15 47 9 27v5l-4-5-4-4v-3h-2v-4l-10 2-13-4-6-1-3 3h-2l4 16-3-2-18-55-1-5 10 3 4 5 4-2 5-2h7l1 1 2-7 3-3 1-6-2-1-2-10-3-10z" fill="#9130BE"/>
<path transform="translate(448,1161)" d="m0 0h12l12 6 6 8 2 7v7l-3 9-6 8-7 4-4 1h-13l-8-4-6-7-4-10v-9l4-10 9-8z" fill="#AA3FA0"/>
<path transform="translate(1740,1055)" d="m0 0 2 3 12 36 9 28v5l-4-5v-3l-3-2-6 2h-9l-3-1h-15l-2 5-2-1-9-27-6-19 1-3 6 2 7 5 4-5h6l3-1 4 1 2-4 2-5 1-5-1-5z" fill="#9130BE"/>
<path transform="translate(1160,377)" d="m0 0 4 2 5 1 7 3 11 4 5 3 3 1 2 2 4 2h4l1 2 6 2 5 3v2l5 2h3v2l3 1v2h2v-2h3v2l3 1 1 2 5 1 3 3h3v2l3-1-1-6-6-2-6-6-2-4-3 1-5-5-2-1v-2l5 2 16 10 16 13 12 11 9 9 11 14 10 14 9 16-1 2-3-4v-3l-5-1v11l-1 8-1 2-14-24-11-15-9-10-7-8-10-9-11-9-21-14-18-10-25-12-19-7v-2z" fill="#9231BD"/>
<path transform="translate(1906,1023)" d="m0 0h12l8 3 6 7v50l-2 2-2-5-1 2h-5l-2 1-6-1v-2l-4-1-4-2-4-5-2-7-3-7v-9l-1-9-1-4h-2v-5l7-6z" fill="#8123CA"/>
<path transform="translate(975,1023)" d="m0 0h12l8 3 5 5-1 7-1 4 1 1 1 12-2 9-6 10h-2l-1 5h-4l-7 1-3-4v-2h-2l-1-4-3 1-2-6-3-3-1-9v-10l-1-11 4-5z" fill="#8123CA"/>
<path transform="translate(727,452)" d="m0 0h16l10 4 10 9 5 10 1 4v15l-4 10-5 5v-4l3-2 2-5v-4l-3-1v2h-2v3l-4 1v3l-9-3-12-5-5-4-3-8v-4l-2-2 4-8-2-4h2v-2l-10-2-3 3-2-1 3-6z" fill="#9030BF"/>
<path transform="translate(1319,397)" d="m0 0h9l8 3 7 7 3 6 1 8-3 10-7 8-6 3-4 1h-9l-9-4-6-7-3-8v-9l4-9 8-7z" fill="#9130BE"/>
<path transform="translate(158,1036)" d="m0 0h1v86l-12 2-6-2-9-5-4-1v-2l-3-1-3-7-3-5v-35l3-1 4 1 4 8v2h2l3 6 10 2 5-2 4-7 2-4 1 3z" fill="#9030BF"/>
<path transform="translate(932,420)" d="m0 0h9l8 3 6 5 5 10v10l-5 10-7 6-5 2h-11l-8-3-7-8-3-7v-11l4-8 7-6z" fill="#9130BE"/>
<path transform="translate(912,282)" d="m0 0 12 2 9 8 4 10v8l-5 10-7 6-10 3-11-2-6-4-6-9-1-3v-12l4-8 7-6z" fill="#8224C9"/>
<path transform="translate(822,870)" d="m0 0 11 1 9 6 5 8 1 3v9l-4 9-9 8-7 2-10-1-6-3-5-5-3-4-2-6v-9l5-10 8-6z" fill="#DF5E6F"/>
<path transform="translate(1033,1224)" d="m0 0h45l7 1-2 1-1 4 2 3-3 1 1 4-1 4-6 3h-8l-3-1-1 1h-12l-2-1h-10v-2l-6-1 1 1-4 2-7-1-3-2-9-2v-2h-6l-1-3 1-2h2l-1-4 3-2 5-1z" fill="#C34F87"/>
<path transform="translate(704,415)" d="m0 0h8l6 4 2 4v9l-6 7-2 1h-8l-5-3-3-4-1-8 4-7z" fill="#9131BD"/>
<path transform="translate(762,829)" d="m0 0 6 1 5 4 2 3 1 7-4 7-3 3-9 1-6-4-3-5v-7l4-6z" fill="#C45086"/>
<path transform="translate(1202,316)" d="m0 0 7 1 6 5 2 4-1 8-8 7h-8l-7-6-1-2v-8l4-6z" fill="#8325C8"/>
<path transform="translate(963,362)" d="m0 0 2 1-5 6-10 3-6 2-1 3h-7l-6 2h-11l-3-2h-3v-2h-2l-2-6-7-2 1-3 19 11 7-1 28-10z" fill="#9332BC"/>
<path transform="translate(379,1223)" d="m0 0 2 2 1 9 1 5-1 3-3 1-1-1-1 2-7 3v-2l-3-1v-2l-2-1h2l-1-6 3-6 4-5h3v2z" fill="#C45087"/>
<path transform="translate(1623,1220)" d="m0 0 2 4-1 3h-2v3l3 1-3 9-5 7-6-3-2-3 1-8 3-7 2-2 4-3z" fill="#C34F87"/>
<path transform="translate(734,1231)" d="m0 0 3 1 2 5h2l1-2 2 6h2l-2 5h-2v-3l-1 1 1 8-4 1 3 4-4-2-5-6-4-11 1-2h3v-4z" fill="#C34F87"/>
<path transform="translate(1893,1218)" d="m0 0 2 1v8l2 3 1 11 3 9 2 5v3l-5-2-5-6-1-3v-25z" fill="#C34F87"/>
<path transform="translate(1040,348)" d="m0 0h41l28 3-2 3-11-2-2 1v-2h-50l-3 2-5-2v2h-3v-2l-6-1v-1z" fill="#9030C0"/>
<path transform="translate(1056,362)" d="m0 0h21l19 1 8 2 1 2-33-2h-44v-1l6-1z" fill="#9633B9"/>
<path transform="translate(1160,377)" d="m0 0 4 2 5 1 7 3 11 4 5 3 3 1 2 2 4 2 2 4-19-9-23-9-3-1v-2z" fill="#9734B7"/>
<path transform="translate(752,460)" d="m0 0 7 1 6 7 4 11-1 3v-2h-2v-2l-4-1-4-6-2-5-4-4z" fill="#AA3FA0"/>
<path transform="translate(1194,1224)" d="m0 0 2 2-3 2 4 4 1 4-4-1-1 4 1 5-2 2-3-1-2-5v-3l1-8 4-4z" fill="#C34F87"/>
<path transform="translate(820,1225)" d="m0 0h3l-1 7h2l1 6h-2v8l2 5-3 1v-2h-2l-2-12-1-7 1-4h2z" fill="#C34F87"/>
<path transform="translate(947,826)" d="m0 0v3l-10 10-12 9-6 3-2-1 3-5 4-2h3v-2l6-2 2-2 7-6z" fill="#D75C77"/>
<path transform="translate(959,377)" d="m0 0h9l-3 2-21 7-11 4 1-3 7-4 6-1-1-2 12-2z" fill="#9633B8"/>
<path transform="translate(1063,348)" d="m0 0h18l28 3-2 3-11-2-2 1v-2h-15v-2h-16z" fill="#9E38AF"/>
<path transform="translate(936,817)" d="m0 0h3v2l-5 3-7 7-1 3h-2v2h-2v2l-6 1h-3l4-4 11-8z" fill="#D75A75"/>
<path transform="translate(860,845)" d="m0 0 2 2 1 2 10 4 2 3-10-1-11-7 3-2z" fill="#D95D76"/>
<path transform="translate(753,836)" d="m0 0 2 1-1 5 2 2v3l2 1 1 3 3 1v2l-6-1-4-5-1-2v-7z" fill="#DB5C72"/>
<path transform="translate(1185,373)" d="m0 0 5 1 22 11-4 1-6-2-5-2-3-2v-2l-7-2z" fill="#9533B9"/>
<path transform="translate(875,367)" d="m0 0 7 2 7 4 1 2 5 1v2l5 1 3 2-1 2-26-13-3-2z" fill="#9C37B2"/>
<path transform="translate(752,460)" d="m0 0 7 1 6 7-1 2-7-2-5-6z" fill="#A13AAB"/>
<path transform="translate(1269,887)" d="m0 0h9l-2 2-6 1h-34v-1l25-1z" fill="#C45086"/>
<path transform="translate(1040,348)" d="m0 0h16v1h-13l-1 4-6-2v2h-3v-2l-6-1v-1z" fill="#9B36B2"/>
<path transform="translate(812,343)" d="m0 0h18v1l-17 1-3 2h-13l4-2z" fill="#9533B9"/>
<path transform="translate(708,1043)" d="m0 0 2 3 5 17-3-1-3-10-2-8z" fill="#9A36B4"/>
<path transform="translate(874,841)" d="m0 0 9 2 2 2-7 2h-3z" fill="#DE5E6F"/>
<path transform="translate(1310,1040)" d="m0 0 2 3 5 14v2h-2l-2-3-2-9-1-1z" fill="#9A36B4"/>
<path transform="translate(486,1036)" d="m0 0 3 4 5 13v2l-3-1-4-13z" fill="#9935B4"/>
<path transform="translate(1340,859)" d="m0 0 1 3-7 10h-3v-4l4-1z" fill="#D45878"/>
<path transform="translate(1169,367)" d="m0 0 11 3 5 2-4 2-12-5z" fill="#9733B7"/>
<path transform="translate(1295,1119)" d="m0 0 2 2 1 7h2l1 6-3 1-3-10z" fill="#9B37B2"/>
<path transform="translate(1094,363)" d="m0 0 10 2 1 2-16-1 4-2z" fill="#9B36B3"/>
<path transform="translate(773,1107)" d="m0 0 2 2-1 6-3-1 1 3-3 1 2-10z" fill="#9634B8"/>
<path transform="translate(766,496)" d="m0 0h2l-2 6-4 6-2 1v-4l3-2z" fill="#9834B6"/>
<path transform="translate(1096,350)" d="m0 0 13 1-2 3-11-2z" fill="#9634B8"/>
</svg>
